<svg width="226" height="37" viewBox="0 0 226 37" fill="none" xmlns="http://www.w3.org/2000/svg">
<path d="M6.388 1.728V27H0.232V1.728H6.388ZM23.0892 6.696C25.4412 6.696 27.3132 7.464 28.7052 9C30.1212 10.512 30.8292 12.6 30.8292 15.264V27H24.7092V16.092C24.7092 14.748 24.3612 13.704 23.6652 12.96C22.9692 12.216 22.0332 11.844 20.8572 11.844C19.6812 11.844 18.7452 12.216 18.0492 12.96C17.3532 13.704 17.0052 14.748 17.0052 16.092V27H10.8492V6.912H17.0052V9.576C17.6292 8.688 18.4692 7.992 19.5252 7.488C20.5812 6.96 21.7692 6.696 23.0892 6.696ZM46.303 21.78V27H43.171C40.939 27 39.199 26.46 37.951 25.38C36.703 24.276 36.079 22.488 36.079 20.016V12.024H33.631V6.912H36.079V2.016H42.235V6.912H46.267V12.024H42.235V20.088C42.235 20.688 42.379 21.12 42.667 21.384C42.955 21.648 43.435 21.78 44.107 21.78H46.303ZM68.668 16.632C68.668 17.208 68.632 17.808 68.56 18.432H54.628C54.724 19.68 55.12 20.64 55.816 21.312C56.536 21.96 57.412 22.284 58.444 22.284C59.98 22.284 61.048 21.636 61.648 20.34H68.2C67.864 21.66 67.252 22.848 66.364 23.904C65.5 24.96 64.408 25.788 63.088 26.388C61.768 26.988 60.292 27.288 58.66 27.288C56.692 27.288 54.94 26.868 53.404 26.028C51.868 25.188 50.668 23.988 49.804 22.428C48.94 20.868 48.508 19.044 48.508 16.956C48.508 14.868 48.928 13.044 49.768 11.484C50.632 9.924 51.832 8.724 53.368 7.884C54.904 7.044 56.668 6.624 58.66 6.624C60.604 6.624 62.332 7.032 63.844 7.848C65.356 8.664 66.532 9.828 67.372 11.34C68.236 12.852 68.668 14.616 68.668 16.632ZM62.368 15.012C62.368 13.956 62.008 13.116 61.288 12.492C60.568 11.868 59.668 11.556 58.588 11.556C57.556 11.556 56.68 11.856 55.96 12.456C55.264 13.056 54.832 13.908 54.664 15.012H62.368ZM78.0716 10.26C78.7916 9.156 79.6916 8.292 80.7716 7.668C81.8516 7.02 83.0516 6.696 84.3716 6.696V13.212H82.6796C81.1436 13.212 79.9916 13.548 79.2236 14.22C78.4556 14.868 78.0716 16.02 78.0716 17.676V27H71.9156V6.912H78.0716V10.26ZM86.09 16.92C86.09 14.856 86.474 13.044 87.242 11.484C88.034 9.924 89.102 8.724 90.446 7.884C91.79 7.044 93.29 6.624 94.946 6.624C96.362 6.624 97.598 6.912 98.654 7.488C99.734 8.064 100.562 8.82 101.138 9.756V6.912H107.294V27H101.138V24.156C100.538 25.092 99.698 25.848 98.618 26.424C97.562 27 96.326 27.288 94.91 27.288C93.278 27.288 91.79 26.868 90.446 26.028C89.102 25.164 88.034 23.952 87.242 22.392C86.474 20.808 86.09 18.984 86.09 16.92ZM101.138 16.956C101.138 15.42 100.706 14.208 99.842 13.32C99.002 12.432 97.97 11.988 96.746 11.988C95.522 11.988 94.478 12.432 93.614 13.32C92.774 14.184 92.354 15.384 92.354 16.92C92.354 18.456 92.774 19.68 93.614 20.592C94.478 21.48 95.522 21.924 96.746 21.924C97.97 21.924 99.002 21.48 99.842 20.592C100.706 19.704 101.138 18.492 101.138 16.956ZM110.524 16.956C110.524 14.868 110.944 13.044 111.784 11.484C112.648 9.924 113.836 8.724 115.348 7.884C116.884 7.044 118.636 6.624 120.604 6.624C123.124 6.624 125.224 7.284 126.904 8.604C128.608 9.924 129.724 11.784 130.252 14.184H123.7C123.148 12.648 122.08 11.88 120.496 11.88C119.368 11.88 118.468 12.324 117.796 13.212C117.124 14.076 116.788 15.324 116.788 16.956C116.788 18.588 117.124 19.848 117.796 20.736C118.468 21.6 119.368 22.032 120.496 22.032C122.08 22.032 123.148 21.264 123.7 19.728H130.252C129.724 22.08 128.608 23.928 126.904 25.272C125.2 26.616 123.1 27.288 120.604 27.288C118.636 27.288 116.884 26.868 115.348 26.028C113.836 25.188 112.648 23.988 111.784 22.428C110.944 20.868 110.524 19.044 110.524 16.956ZM139.701 0.36V27H133.545V0.36H139.701ZM164.682 6.912L152.082 36.54H145.458L150.066 26.316L141.894 6.912H148.77L153.414 19.476L158.022 6.912H164.682ZM177.417 27.288C176.337 27.288 175.449 26.976 174.753 26.352C174.081 25.704 173.745 24.912 173.745 23.976C173.745 23.016 174.081 22.212 174.753 21.564C175.449 20.916 176.337 20.592 177.417 20.592C178.473 20.592 179.337 20.916 180.009 21.564C180.705 22.212 181.053 23.016 181.053 23.976C181.053 24.912 180.705 25.704 180.009 26.352C179.337 26.976 178.473 27.288 177.417 27.288Z" fill="black"/>
<path d="M208.058 22.536H198.626L197.114 27H190.67L199.814 1.728H206.942L216.086 27H209.57L208.058 22.536ZM206.474 17.784L203.342 8.532L200.246 17.784H206.474ZM225.025 1.728V27H218.869V1.728H225.025Z" fill="url(#paint0_linear_3659_104721)"/>
<defs>
<linearGradient id="paint0_linear_3659_104721" x1="113" y1="-13" x2="113" y2="41" gradientUnits="userSpaceOnUse">
<stop stop-color="#C44524"/>
<stop offset="0.0001" stop-color="#24BAC4"/>
<stop offset="1" stop-color="#2238FF"/>
</linearGradient>
</defs>
</svg>
