<svg width="11" height="13" viewBox="0 0 11 13" fill="none" xmlns="http://www.w3.org/2000/svg">
<path d="M2.90904 5.90793C2.77788 5.67193 2.57207 5.48617 2.32391 5.37979C2.07576 5.27342 1.7993 5.25246 1.53795 5.32021C1.27659 5.38795 1.04513 5.54057 0.879891 5.7541C0.714655 5.96762 0.625 6.22998 0.625 6.49997C0.625 6.76996 0.714655 7.03231 0.879891 7.24584C1.04513 7.45937 1.27659 7.61198 1.53795 7.67973C1.7993 7.74748 2.07576 7.72652 2.32391 7.62015C2.57207 7.51377 2.77788 7.32801 2.90904 7.09201M2.90904 5.90793C3.00654 6.08343 3.06233 6.28493 3.06233 6.49997C3.06233 6.71501 3.00654 6.91705 2.90904 7.09201M2.90904 5.90793L8.09062 3.02951M2.90904 7.09201L8.09062 9.97043M8.09062 3.02951C8.16659 3.17259 8.27032 3.29908 8.39575 3.4016C8.52118 3.50412 8.66579 3.5806 8.82112 3.62658C8.97645 3.67256 9.13939 3.68711 9.30041 3.66938C9.46143 3.65165 9.6173 3.602 9.75891 3.52333C9.90052 3.44466 10.025 3.33854 10.1251 3.21119C10.2253 3.08384 10.299 2.93781 10.342 2.78164C10.385 2.62546 10.3965 2.46227 10.3757 2.30162C10.3549 2.14096 10.3023 1.98606 10.221 1.84597C10.0607 1.5699 9.79849 1.36775 9.49072 1.28297C9.18296 1.19819 8.85421 1.23754 8.57516 1.39257C8.2961 1.5476 8.08901 1.80593 7.99841 2.11203C7.9078 2.41813 7.94091 2.74756 8.09062 3.02951ZM8.09062 9.97043C8.01287 10.1104 7.96345 10.2643 7.94518 10.4233C7.92691 10.5824 7.94014 10.7435 7.98413 10.8974C8.02812 11.0514 8.10199 11.1951 8.20154 11.3205C8.30109 11.4459 8.42436 11.5505 8.56431 11.6282C8.70426 11.7059 8.85816 11.7554 9.01721 11.7736C9.17627 11.7919 9.33736 11.7787 9.4913 11.7347C9.64524 11.6907 9.789 11.6168 9.91439 11.5173C10.0398 11.4177 10.1443 11.2945 10.2221 11.1545C10.3791 10.8719 10.4174 10.5384 10.3286 10.2275C10.2397 9.91663 10.031 9.65376 9.74839 9.49674C9.46574 9.33972 9.1323 9.30141 8.8214 9.39025C8.51051 9.47908 8.24764 9.68778 8.09062 9.97043Z" stroke="#C7C7C7" stroke-linecap="round" stroke-linejoin="round"/>
</svg>
