<svg width="14" height="24" viewBox="0 0 14 24" fill="none" xmlns="http://www.w3.org/2000/svg">
<path d="M7 18.75C8.5913 18.75 10.1174 18.1179 11.2426 16.9926C12.3679 15.8674 13 14.3413 13 12.75V11.25M7 18.75C5.4087 18.75 3.88258 18.1179 2.75736 16.9926C1.63214 15.8674 1 14.3413 1 12.75V11.25M7 18.75V22.5M3.25 22.5H10.75M7 15.75C6.20435 15.75 5.44129 15.4339 4.87868 14.8713C4.31607 14.3087 4 13.5456 4 12.75V4.5C4 3.70435 4.31607 2.94129 4.87868 2.37868C5.44129 1.81607 6.20435 1.5 7 1.5C7.79565 1.5 8.55871 1.81607 9.12132 2.37868C9.68393 2.94129 10 3.70435 10 4.5V12.75C10 13.5456 9.68393 14.3087 9.12132 14.8713C8.55871 15.4339 7.79565 15.75 7 15.75Z" stroke="#A7A7A7" stroke-width="1.5" stroke-linecap="round" stroke-linejoin="round"/>
</svg>
